<svg width="97" height="70" viewBox="0 0 97 70" fill="none" xmlns="http://www.w3.org/2000/svg">
<path d="M69.2857 0C56.5371 0 46.1905 7.64878 46.1905 17.0732C46.1905 26.4976 56.5371 34.1463 69.2857 34.1463C82.0343 34.1463 92.381 26.4976 92.381 17.0732C92.381 7.64878 82.0343 0 69.2857 0ZM69.2857 27.3171C61.6181 27.3171 55.4286 22.7415 55.4286 17.0732C55.4286 11.4049 61.6181 6.82927 69.2857 6.82927C76.9533 6.82927 83.1429 11.4049 83.1429 17.0732C83.1429 22.7415 76.9533 27.3171 69.2857 27.3171ZM83.1429 47.8049H73.9048C73.9048 43.7073 70.4405 40.0195 65.2671 38.5854L36.8138 30.7317H0V68.2927H27.7143V63.3756L60.0476 70L97 61.4634V58.0488C97 52.3805 90.8105 47.8049 83.1429 47.8049ZM18.4762 61.4634H9.2381V37.561H18.4762V61.4634ZM59.909 62.8634L27.7143 56.3415V37.561H35.151L62.0338 44.9707C63.6043 45.4146 64.6667 46.5415 64.6667 47.8049C64.6667 47.8049 55.4286 47.6341 54.0429 47.2927L43.0495 44.5951L40.1395 51.0829L51.1329 53.7805C53.4886 54.361 55.9367 54.6341 58.431 54.6341H83.1429C84.9443 54.6341 86.561 55.4537 87.3 56.5805L59.909 62.8634Z" fill="#00A84A"/>
</svg>
